<?xml version="1.0" encoding="UTF-8"?>
<svg xmlns="http://www.w3.org/2000/svg" xmlns:xlink="http://www.w3.org/1999/xlink" viewBox="0 0 24 24" width="40px" height="40px">
<g id="surface84869372">
<path style=" stroke:none;fill-rule:nonzero;fill:rgb(18.039216%,80.000001%,44.313726%);fill-opacity:1;" d="M 12 2 C 6.476562 2 2 6.476562 2 12 C 2 17.523438 6.476562 22 12 22 C 17.523438 22 22 17.523438 22 12 C 22 6.476562 17.523438 2 12 2 Z M 17.707031 9.707031 L 10.707031 16.707031 C 10.511719 16.902344 10.257812 17 10 17 C 9.742188 17 9.488281 16.902344 9.292969 16.707031 L 6.292969 13.707031 C 5.902344 13.316406 5.902344 12.683594 6.292969 12.292969 C 6.683594 11.902344 7.316406 11.902344 7.707031 12.292969 L 10 14.585938 L 16.292969 8.292969 C 16.683594 7.902344 17.316406 7.902344 17.707031 8.292969 C 18.097656 8.683594 18.097656 9.316406 17.707031 9.707031 Z M 17.707031 9.707031 "/>
</g>
</svg>
